<?xml version="1.0" encoding="utf-8"?>
<!-- Generator: Adobe Illustrator 23.1.0, SVG Export Plug-In . SVG Version: 6.00 Build 0)  -->
<svg version="1.1" id="Layer_1" xmlns="http://www.w3.org/2000/svg" xmlns:xlink="http://www.w3.org/1999/xlink" x="0px" y="0px"
	 viewBox="0 0 109.94 114.11" style="enable-background:new 0 0 109.94 114.11;" xml:space="preserve">
<style type="text/css">
	.st0{fill:none;stroke:#000000;stroke-width:2;stroke-linecap:round;stroke-linejoin:round;stroke-miterlimit:10;}
</style>
<path d="M92.06,14.96c-2.14,0.25-4.32,0.05-6.49,0.06c-1.66,0-3.81-0.6-4.84,0.21c-0.88,0.69-0.4,3.02-0.67,4.6
	c-0.08,0.44-0.66,1.08-1.07,1.13c-1.14,0.16-2.33,0.11-3.49,0.04c-1.44-0.08-3.22,0.17-4.2-0.57c-0.65-0.49-0.27-2.49-0.17-3.81
	c0.11-1.37-0.47-1.72-1.71-1.63c-1.16,0.09-2.33,0-3.5,0.02c-1.48,0.02-3.44-0.47-4.3,0.28c-0.79,0.68-0.54,2.74-0.47,4.18
	c0.07,1.49-0.66,1.62-1.8,1.55c-0.83-0.05-1.67,0.01-2.5-0.01c-1.47-0.04-3.45,0.43-4.28-0.33c-0.78-0.72-0.44-2.75-0.44-4.2
	c0-1.01-0.23-1.52-1.35-1.48c-1.83,0.06-3.66,0.01-5.49,0.02c-4.03,0.01-4.11,0.01-4.14,4.1c-0.01,1.51-0.42,2.07-1.94,1.92
	c-1.15-0.12-2.33-0.02-3.49-0.02c-3.5-0.01-3.5-0.02-3.61-3.68c-0.07-2.29-0.07-2.3-2.47-2.32c-3-0.02-5.99-0.02-8.99,0 M6.11,15.02
	c0-3,0.04-6-0.03-9C6.06,5.15,6.25,4.83,7.11,5.01c0.16,0.03,0.33,0,0.5,0c32.33,0,64.67,0.01,97-0.04c1.3,0,1.6,0.23,1.54,1.54
	c-0.13,2.83-0.04,5.66-0.04,8.5 M15.12,16.3 M56.59,13.02c14.8,0,29.6,0.02,44.4-0.04c1.03,0,2.39,0.75,3.09-0.65
	c0.47-0.93-0.87-3.66-2.02-4.31c-1.1-0.62-2.17-1.11-3.58-1.06c-3.99,0.15-7.98,0.05-11.97,0.05C62.74,7.02,38.96,7,15.18,7.05
	c-1.4,0-2.94-0.6-4.24,0.6c-0.43,0.39-1.55,0.41-1.61,0.74c-0.23,1.28-0.41,2.66-0.15,3.9c0.28,1.35,1.65,0.69,2.51,0.69
	C26.66,13.03,41.62,13.02,56.59,13.02z"/>
<path d="M33.51,103.72c-0.81,0.26-2.37-0.67-2.33,0.89c0.05,2.03-1.24,3.29-2.53,3.87c-1.38,0.63-3.26,0.36-4.88,0.16
	c-0.61-0.08-1.25-0.99-1.63-1.66c-0.44-0.79-0.85-1.74-0.86-2.62c-0.05-5.78-0.01-11.56,0.07-17.34c0.01-0.56,0.8-1.17,0.71-1.66
	c-0.59-3.27,1.17-5.83,2.48-8.49c0.36-0.72,0.68-0.94-0.34-1.17c-0.57-0.13-1.12-0.57-1.58-0.98c-0.84-0.76-1.83-1.46-1.51-2.87
	c0.27-1.2,2.06-2.93,3.35-3.1c0.49-0.07,1-0.04,1.5,0c1.68,0.14,2.66-0.44,3.21-2.21c0.78-2.49,1.83-4.91,2.97-7.26
	c2.14-4.4,5.6-6.72,10.66-6.57c4.33,0.13,8.66,0.03,12.99,0.03c4.5,0,9,0.08,13.49-0.03c3.2-0.08,5.66,1.64,8.22,3.09
	c0.7,0.4,1.06,1.48,1.46,2.3c1.21,2.49,2.4,5,3.53,7.53c0.91,2.02,1.95,3.72,4.63,3.12c2.1-0.47,2.83,1.43,3.9,2.53
	c0.42,0.43,0.38,1.78,0.02,2.38c-0.5,0.82-1.46,1.76-2.33,1.88c-2.01,0.27-1.12,0.88-0.64,1.94c1.29,2.89,2.21,5.84,2.1,9.15
	c-0.2,6.16-0.03,12.32-0.07,18.49c-0.02,3.22-0.42,3.57-3.74,3.63c-0.67,0.01-1.33-0.03-2,0.01c-1.91,0.13-3.14-0.45-3.31-2.62
	c-0.05-0.7-0.63-1.43-1.13-2c-0.25-0.29-0.97-0.48-1.29-0.32 M48.26,103.73c-3.5-0.02-7,0-10.49,0 M59.56,103.7
	c-2.1,0.21-4.22,0.28-6.33,0.41 M73.36,103.71c-3.31,0.08-6.61,0.12-9.92,0.18 M55.85,55.72c-5.16,0-10.33,0.1-15.49-0.04
	c-2.59-0.07-4.21,0.77-5.3,3.23c-1.45,3.24-2.95,6.44-3.96,9.85c-0.8,2.7-1.19,2.93-3.9,2.96c-1.17,0.01-2.33-0.02-3.5,0.03
	c-0.15,0.01-0.32,0.39-0.41,0.63c-0.02,0.06,0.21,0.32,0.33,0.33c0.5,0.04,1-0.03,1.5,0.02c3.11,0.35,3.42,0.98,2,3.95
	c-0.33,0.7-0.69,1.38-1,2.09c-0.68,1.55-1.87,3.1-1.91,4.67c-0.21,7.32-0.07,14.65-0.11,21.98c-0.01,1.15,0.51,1.33,1.5,1.33
	c2.37-0.01,2.74-0.21,3.51-2.38c0.91-2.58,0.91-2.63,3.74-2.63c15.66-0.02,31.31,0.08,46.96-0.11c2.11-0.03,2.41,1.22,2.95,2.33
	c1.39,2.83,1.3,2.79,3.71,2.81c1.32,0.01,1.68-0.41,1.66-1.69c-0.06-5.33-0.21-10.67,0.03-15.99c0.22-4.67-1.07-8.72-3.67-12.5
	c-0.99-1.44-0.21-3.43,1.47-3.82c0.79-0.18,1.66,0.01,2.49-0.06c0.2-0.02,0.38-0.36,0.53-0.59c0.02-0.03-0.21-0.32-0.34-0.33
	c-0.66-0.05-1.36-0.19-1.97-0.04c-3.09,0.79-4.37-1.21-5.49-3.45c-1.38-2.76-2.78-5.51-4.06-8.31c-1.35-2.95-3.34-4.48-6.79-4.32
	C65.52,55.89,60.68,55.72,55.85,55.72z"/>
<path d="M56.16,73.72c-7.14,0-14.29,0.01-21.43-0.01c-1.75-0.01-1.8-0.16-1.16-1.96c1.19-3.33,2.2-6.73,3.61-9.97
	c0.62-1.42,1.93-2.6,3.12-3.66c0.5-0.44,1.52-0.39,2.3-0.39c8.97-0.02,17.94,0.06,26.91-0.06c2.99-0.04,4.6,1.86,5.49,4.01
	c1.29,3.12,2.37,6.32,3.89,9.35c0.87,1.73,0.17,2.66-1.81,2.66C70.12,73.73,63.14,73.72,56.16,73.72z M55.69,71.72
	c6.14,0,12.29,0,18.43,0c2.19,0,2.19-0.03,1.44-2.06c-0.8-2.16-1.81-4.26-2.38-6.48c-0.44-1.7-1.18-2.49-2.93-2.48
	c-9.3,0.03-18.6,0.04-27.9-0.01c-1.91-0.01-2.89,0.54-3.32,2.63c-0.45,2.22-1.57,4.31-2.47,6.43c-0.7,1.63-0.58,1.94,1.2,1.95
	C43.73,71.74,49.71,71.72,55.69,71.72z"/>
<path class="st0" d="M76.61,103.22c3.98-0.75,4.04-0.77,5.46,3.01c0.41,1.08,0.92,1.55,2.04,1.5c1-0.05,2-0.04,3,0
	c1.42,0.06,2.03-0.59,2.01-2.01c-0.04-2.67-0.01-5.33-0.01-8c0-3.5-0.15-7.01,0.04-10.5c0.21-3.91-1.15-7.26-3.04-10.5
	c-0.83-1.44-0.64-1.93,1-2.49c0.65-0.22,1.42-0.2,1.97-0.55c0.46-0.29,1.07-1.08,0.95-1.43c-0.25-0.75-0.8-1.69-1.45-1.94
	c-0.87-0.33-2.01-0.25-2.96-0.04c-1.45,0.32-1.98-0.56-2.5-1.54c-1.35-2.49-2.69-4.99-3.99-7.5c-0.41-0.79-0.52-1.78-1.04-2.47
	c-2.34-3.17-5.36-4.69-9.47-4.59c-8.66,0.22-17.33,0.2-26,0.01c-4.69-0.1-7.87,1.53-9.53,6.04c-1.01,2.73-2.42,5.3-3.43,8.03
	c-0.58,1.56-1.43,2.18-3.05,2c-0.99-0.11-2.09-0.27-2.97,0.06c-0.66,0.25-1.21,1.19-1.45,1.94c-0.12,0.35,0.58,0.98,0.93,1.47
	c0.13,0.19,0.3,0.39,0.5,0.5c2.54,1.33,2.18,1.24,1.6,3.54c-0.49,1.95-2.31,3.24-2.17,5.48c0.12,1.82-0.39,3.66-0.42,5.5
	c-0.07,4.67-0.02,9.33-0.02,14c0,0.5-0.06,1.01,0.01,1.5c0.36,2.59,0.95,3.39,2.49,3.5c3.22,0.23,4.2-0.14,4.9-3.02
	c0.42-1.74,1.15-2,2.6-1.99c7.5,0.03,15,0.01,22.5,0.01c6.17,0,12.33-0.02,18.5,0.02c0.83,0.01,1.67,0.31,2.5,0.48"/>
<path class="st0" d="M35.11,72.22c1.17,0.17,2.33,0.47,3.5,0.48c11.5,0.04,23,0.02,34.5,0.02c0.67,0,1.34,0.03,2-0.01
	c2.49-0.15,3.03-0.84,1.97-2.98c-1.14-2.29-2-4.67-2.95-7.02c-1.1-2.7-1.97-3.48-4.51-3.49c-9-0.02-18,0.1-27-0.08
	c-2.28-0.05-4.18,1.28-4.31,2.6c-0.38,3.63-3.35,6.3-3.19,9.98"/>
<path class="st0" d="M52.11,103.72"/>
<path class="st0" d="M62.11,103.72"/>
<path class="st0" d="M39.44,30.78c1.85,1.53,8.23,6.45,17.78,6.67c9,0.2,15.31-3.9,17.33-5.33"/>
<path class="st0" d="M31.67,36.22c2.67,2.22,11.92,9.35,25.76,9.66c13.04,0.29,22.19-5.65,25.12-7.73"/>
<path class="st0" d="M46.78,26.11c1.1,0.91,4.88,3.83,10.56,3.96c5.34,0.12,9.09-2.31,10.29-3.17"/>
<g>
</g>
<g>
</g>
<g>
</g>
<g>
</g>
<g>
</g>
<g>
</g>
</svg>
